<svg xmlns="http://www.w3.org/2000/svg" xmlns:xlink="http://www.w3.org/1999/xlink" width="800" zoomAndPan="magnify" viewBox="0 0 600 449.999984" height="600" preserveAspectRatio="xMidYMid meet" version="1.0"><defs><g/></defs><g fill="#ff3131" fill-opacity="1"><g transform="translate(140.523399, 232.752189)"><g><path d="M 76.53125 -80.96875 L 76.53125 -6.421875 C 76.53125 -2.140625 74.425781 0 70.21875 0 L 59.03125 0 C 57.257812 0 55.859375 -0.40625 54.828125 -1.21875 C 53.796875 -2.03125 52.835938 -3.394531 51.953125 -5.3125 L 30.6875 -48.515625 C 28.25 -53.460938 26.585938 -57.632812 25.703125 -61.03125 L 24.375 -61.03125 C 24.957031 -57.257812 25.25 -52.976562 25.25 -48.1875 L 25.25 0 L 8.203125 0 L 8.203125 -74.546875 C 8.203125 -78.828125 10.378906 -80.96875 14.734375 -80.96875 L 25.578125 -80.96875 C 27.359375 -80.96875 28.765625 -80.5625 29.796875 -79.75 C 30.828125 -78.9375 31.820312 -77.609375 32.78125 -75.765625 L 53.28125 -33.78125 C 55.195312 -29.863281 57.148438 -25.546875 59.140625 -20.828125 L 60.359375 -20.828125 C 59.847656 -27.910156 59.59375 -32.453125 59.59375 -34.453125 L 59.59375 -80.96875 Z M 76.53125 -80.96875 "/></g></g></g><g fill="#ff3131" fill-opacity="1"><g transform="translate(225.249534, 232.752189)"><g><path d="M 25.8125 -81.40625 C 43.007812 -81.40625 55.15625 -80.960938 62.25 -80.078125 L 61.25 -66.90625 L 32.34375 -66.90625 C 30.050781 -66.90625 28.40625 -66.441406 27.40625 -65.515625 C 26.414062 -64.585938 25.921875 -63.054688 25.921875 -60.921875 L 25.921875 -47.078125 L 56.9375 -47.078125 L 56.9375 -34 L 25.921875 -34 L 25.921875 0 L 7.96875 0 L 7.96875 -64.578125 C 7.96875 -69.742188 9.59375 -73.835938 12.84375 -76.859375 C 16.09375 -79.890625 20.414062 -81.40625 25.8125 -81.40625 Z M 25.8125 -81.40625 "/></g></g></g><g fill="#ff3131" fill-opacity="1"><g transform="translate(290.261605, 232.752189)"><g><path d="M 68.453125 -66.453125 L 44.296875 -66.453125 L 44.296875 0 L 26.25 0 L 26.25 -66.453125 L 2.109375 -66.453125 L 2.109375 -80.96875 L 68.453125 -80.96875 Z M 68.453125 -66.453125 "/></g></g></g><g fill="#000000" fill-opacity="1"><g transform="translate(360.775428, 232.752189)"><g><path d="M 12.296875 -83.515625 L 20.046875 -83.515625 C 23.441406 -83.515625 25.140625 -81.816406 25.140625 -78.421875 L 25.140625 -72.109375 C 25.140625 -68.710938 23.441406 -67.015625 20.046875 -67.015625 L 12.296875 -67.015625 C 8.972656 -67.015625 7.3125 -68.710938 7.3125 -72.109375 L 7.3125 -78.421875 C 7.3125 -81.816406 8.972656 -83.515625 12.296875 -83.515625 Z M 24.921875 0 L 7.640625 0 L 7.640625 -57.921875 L 24.921875 -57.921875 Z M 24.921875 0 "/></g></g></g><g fill="#000000" fill-opacity="1"><g transform="translate(393.226081, 232.752189)"><g><path d="M 47.1875 -29.6875 L 65.015625 0 L 47.1875 0 L 33.453125 -24.25 L 32.78125 -24.25 L 19.046875 0 L 1.21875 0 L 19.046875 -29.6875 L 2.4375 -57.921875 L 20.15625 -57.921875 L 32.5625 -35.546875 L 33.671875 -35.546875 L 46.078125 -57.921875 L 63.796875 -57.921875 Z M 47.1875 -29.6875 "/></g></g></g></svg>